<svg xmlns="http://www.w3.org/2000/svg" xmlns:xlink="http://www.w3.org/1999/xlink" version="1.1" x="0px" y="0px" viewBox="0 0 512 512" style="enable-background:new 0 0 512 512;" xml:space="preserve"><g><rect x="39.941" y="461.163" width="432.118" height="17.703"/><g><polygon style="" points="372.92,299.392 338.447,299.392 338.447,323.146 338.447,448.73 372.92,448.73     372.92,320.684   " fill="none"/><path style="" d="M268.27,334.692l-23.48,23.48c-1.022,1.029-2.418,1.603-3.867,1.603h-7.125v12.415v76.54h34.472    v-88.648V334.692z" fill="none"/><polygon style="" points="163.62,389.726 152.512,389.726 129.147,413.09 129.147,423.282 129.147,448.73     163.62,448.73 163.62,403.378   " fill="none"/><path d="M372.92,127.394v161.057h3.049l24.839-26.034l-6.697,1.086c-2.939,0.461-5.791-1.55-6.279-4.529    c-0.481-2.979,1.543-5.791,4.529-6.279l22.777-3.694c0.121-0.019,0.239,0.032,0.36,0.02c0.448-0.043,0.877,0.007,1.322,0.074    c0.297,0.045,0.585,0.056,0.871,0.149c0.438,0.141,0.824,0.394,1.222,0.649c0.208,0.134,0.458,0.182,0.648,0.344    c0.04,0.034,0.053,0.088,0.093,0.123c0.041,0.037,0.094,0.046,0.134,0.084c0.365,0.348,0.583,0.777,0.83,1.188    c0.114,0.19,0.286,0.336,0.376,0.538c0.311,0.693,0.47,1.432,0.478,2.179c0,0.019,0.013,0.037,0.013,0.056v21.548    c0,3.019-2.451,5.471-5.471,5.471c-3.019,0-5.471-2.451-5.471-5.471v-7.889l-28.268,29.63c-1.035,1.089-2.465,1.697-3.961,1.697    h-5.394v21.292V448.73h70.177V127.394H372.92z"/><path d="M338.447,299.392h-6.983l-29.517,29.517c-1.022,1.029-2.418,1.603-3.867,1.603h-25.629l-4.18,4.18v25.39v88.648h70.177    V323.146V299.392z"/><path d="M295.814,319.571l29.517-29.517c1.022-1.029,2.418-1.603,3.867-1.603h9.248V162.684H268.27v157.268    c0.61-0.229,1.252-0.381,1.915-0.381H295.814z"/><path d="M206.556,350.437c1.022-1.029,2.418-1.603,3.867-1.603h23.374V235.323H163.62v143.462h14.587L206.556,350.437z"/><path d="M233.797,359.775h-21.11l-28.348,28.348c-1.022,1.029-2.418,1.603-3.867,1.603H163.62v13.652v45.352h70.177v-76.54    V359.775z"/><path d="M129.147,413.09l-5.258,5.258c-1.022,1.029-2.418,1.603-3.867,1.603H76.057c-3.019,0-5.471-2.451-5.471-5.471    s2.451-5.471,5.471-5.471h41.7l11.389-11.389v-101.97H58.97V448.73h70.177v-25.448V413.09z"/><path d="M240.922,359.775c1.449,0,2.845-0.574,3.867-1.603l23.48-23.48v-14.74c-0.724,0.271-1.398,0.664-1.952,1.222l-27.66,27.66    h-4.86v10.941H240.922z"/><path d="M152.512,389.726h11.109v-10.941h-13.373c-1.449,0-2.845,0.574-3.867,1.603l-17.232,17.232v15.47L152.512,389.726z"/><rect x="338.447" y="288.451" width="34.473" height="10.941"/><polygon points="81.812,271.216 138.404,148.265 94.87,138.601 111.406,87.752 129.167,33.134 49.713,162.139 103.879,174.162       "/></g></g></svg>