<svg xmlns="http://www.w3.org/2000/svg" data-name="Layer 1" viewBox="0 0 64 64" x="0px" y="0px"><title>Internet of Things</title><path d="M57,51.184V35H42.709l3.258-6H57V12.816a3,3,0,1,0-2,0V27H47.052l1.912-3.521L32.29,27.646,33.62,21H45V8.816a3,3,0,1,0-2,0V19H34.02l2.9-14.479.124-.87-.821-.288-.041-.013-.807-.288L26.719,19H21V8.816a3,3,0,1,0-2,0V21h6.633l-3.257,6H9V12.816a3,3,0,1,0-2,0V29H21.291l-3.258,6H7V51.184a3,3,0,1,0,2,0V37h7.948l-1.912,3.521L31.71,36.354,30.38,43H19V55.184a3,3,0,1,0,2,0V45h8.98l-2.9,14.479-.076.881,1.621.578L37.281,45H43V55.184a3,3,0,1,0,2,0V43H38.367l3.257-6H55V51.184a3,3,0,1,0,2,0Z"/></svg>