<svg xmlns="http://www.w3.org/2000/svg" xmlns:xlink="http://www.w3.org/1999/xlink" version="1.1" x="0px" y="0px" viewBox="0 0 100 100" style="enable-background:new 0 0 100 100;" xml:space="preserve"><path d="M72,48.9c-8.8,0-16,7.2-16,16c0,8.8,7.2,16,16,16s16-7.2,16-16C88,56.1,80.8,48.9,72,48.9z M79.3,67.3h-2.1l-1.6,4.4  c-0.2,0.6-0.8,1-1.4,1c0,0,0,0,0,0c-0.6,0-1.2-0.4-1.4-1.1l-2.9-9.5c-0.6,1.2-0.8,2.6-0.7,3.9c0,0.4-0.1,0.8-0.4,1.1  c-0.3,0.3-0.7,0.5-1.1,0.5h-3c-0.8,0-1.5-0.7-1.5-1.5s0.7-1.5,1.5-1.5h1.5c0.2-2.2,1-4.4,2.4-6.1l0.7-0.8c0.4-0.4,0.9-0.6,1.5-0.5  c0.5,0.1,1,0.5,1.1,1l2.4,8.1l0.4-1.1c0.2-0.6,0.8-1,1.4-1h3.2c0.8,0,1.5,0.7,1.5,1.5S80.1,67.3,79.3,67.3z M25.7,58.8H54  c2.6-7.5,9.6-12.8,18-12.8V18c0-4.4-3.6-8-8-8H20c-4.4,0-8,3.6-8,8v64c0,4.4,3.6,8,8,8h44c3.8,0,6.9-2.6,7.8-6.1  c-2.9,0-5.6-0.7-8-1.9c0,0.1,0,0.2,0,0.3c0,0.8-0.7,1.5-1.5,1.5s-1.5-0.7-1.5-1.5c0-0.6,0.4-1.2,0.9-1.4c-1.8-1.2-3.5-2.7-4.8-4.4  H25.7c-0.8,0-1.5-0.7-1.5-1.5s0.7-1.5,1.5-1.5H55c-0.7-1.4-1.2-2.8-1.6-4.3H25.7c-0.8,0-1.5-0.7-1.5-1.5s0.7-1.5,1.5-1.5h27.3  c0-0.4-0.1-0.8-0.1-1.2c0-1.1,0.1-2.1,0.3-3.2H25.7c-0.8,0-1.5-0.7-1.5-1.5S24.9,58.8,25.7,58.8z M42,17.5V31h9l-9,21.5V39h-9  L42,17.5z M21.8,83.8c-0.8,0-1.5-0.7-1.5-1.5s0.7-1.5,1.5-1.5s1.5,0.7,1.5,1.5S22.6,83.8,21.8,83.8z M21.8,76.4  c-0.8,0-1.5-0.7-1.5-1.5s0.7-1.5,1.5-1.5s1.5,0.7,1.5,1.5S22.6,76.4,21.8,76.4z M21.8,69.1c-0.8,0-1.5-0.7-1.5-1.5  c0-0.8,0.7-1.5,1.5-1.5s1.5,0.7,1.5,1.5C23.3,68.4,22.6,69.1,21.8,69.1z M21.8,61.8c-0.8,0-1.5-0.7-1.5-1.5s0.7-1.5,1.5-1.5  s1.5,0.7,1.5,1.5S22.6,61.8,21.8,61.8z M58.3,80.8c0.8,0,1.5,0.7,1.5,1.5s-0.7,1.5-1.5,1.5s-1.5-0.7-1.5-1.5S57.4,80.8,58.3,80.8z   M54.3,80.8c0.8,0,1.5,0.7,1.5,1.5s-0.7,1.5-1.5,1.5s-1.5-0.7-1.5-1.5S53.4,80.8,54.3,80.8z M50.3,80.8c0.8,0,1.5,0.7,1.5,1.5  s-0.7,1.5-1.5,1.5s-1.5-0.7-1.5-1.5S49.4,80.8,50.3,80.8z M25.7,80.8h20c0.8,0,1.5,0.7,1.5,1.5s-0.7,1.5-1.5,1.5h-20  c-0.8,0-1.5-0.7-1.5-1.5S24.9,80.8,25.7,80.8z"/></svg>