<svg xmlns="http://www.w3.org/2000/svg" xmlns:xlink="http://www.w3.org/1999/xlink" version="1.1" x="0px" y="0px" viewBox="0 0 46 46" style="enable-background:new 0 0 48 48;" xml:space="preserve"><g><path d="M14.18,23H5.07l1.95-9.21C7.12,13.33,7.53,13,8,13h7.13v0.05l-2.69,4.39c-0.56,0.92-0.59,2.08-0.06,3.03   c0.42,0.73,1.11,1.2401,1.9,1.4301l-0.04,0.47L14.18,23z M21,22h-4.7l-0.1,1H21V22z M4.64,25L2.31,36h10.68L14,25H4.64z M21,30v-5   h-4.99l-1,11H23v-3.19C21.81,32.41,21,31.28,21,30z M31.1,23h0.71l-0.1-1.13L31.1,23z M26.65,31.4c-0.36,0.68-0.95,1.18-1.65,1.42   V36h8.03L32,25h-1.96L26.65,31.4z M33.83,23h9.1l-1.95-9.21C40.88,13.33,40.47,13,40,13h-4c0,0.48-0.12,0.97-0.35,1.41l-2.22,4.19   L33.83,23z M43.36,25h-9.35l1.03,11h10.65L43.36,25z M0.02,46.79c-0.06,0.3,0.01,0.61,0.2,0.84C0.41,47.86,0.7,48,1,48h10.9   l0.91-10H1.89L0.02,46.79z M13.92,48H23V38h-8.17L13.92,48z M25,38v10h9.15l-0.94-10H25z M46.11,38H35.23l0.94,10H47   c0.3,0,0.59-0.14,0.78-0.37c0.1899-0.23,0.2599-0.54,0.2-0.84L46.11,38z M27.78,25l1.05-2l2.54-4.79V18.2l1.73-3.25l0.78-1.48   C33.96,13.32,34,13.16,34,13c0-0.18-0.05-0.36-0.14-0.52C33.68,12.18,33.35,12,33,12h-6V1c0-0.45-0.3-0.84-0.73-0.96   s-0.89,0.06-1.12,0.44L17.5,13l-0.41,0.68l-2.39,3.9l-0.55,0.9c-0.19,0.31-0.2,0.69-0.02,1.01c0.08,0.14,0.2,0.26,0.34,0.34   C14.62,19.94,14.81,20,15,20h1.49H23v3v2v5c0,0.02,0,0.05,0.01,0.07c-0.01,0.01,0,0.02,0,0.03c0.04,0.42,0.33,0.77,0.75,0.87   C23.84,30.99,23.92,31,24,31c0.36,0,0.71-0.2,0.88-0.53L25,30.24L27.78,25z"/></g></svg>