<svg xmlns="http://www.w3.org/2000/svg" xmlns:xlink="http://www.w3.org/1999/xlink" version="1.1" x="0px" y="0px" viewBox="0 0 1024 1024" style="enable-background:new 0 0 1024 1024;" xml:space="preserve"><g><path d="M541.1,146.16H198.41c-23.27,0-42.2,18.93-42.2,42.2v606.3h-1.67c-23.27,0-42.2,18.93-42.2,42.2v77.57h131.11   c-3.75-7.39-5.87-15.74-5.87-24.57v-21.77c-4.85-5.8-8.72-12.43-11.44-19.65l-0.01-0.03l-0.01-0.03l-2.2-5.89   c-4.82-12.89-7.27-26.38-7.27-40.11V718.4c0-23.61,6.05-47.01,17.5-67.68c4.63-8.34,10.09-16.16,16.28-23.36   c-15.28-9.13-25.53-25.84-25.53-44.9v-20.65c0-23.14,18.83-41.97,41.97-41.97h23.32c15.91,0,30.94,4.64,43.63,12.77l12.28-24.43   c12.28-24.4,31.06-44.87,54.31-59.2c23.25-14.33,49.98-21.91,77.29-21.91h105.6V188.36C583.3,165.09,564.37,146.16,541.1,146.16z    M501.49,361.87c0,6.82-5.55,12.36-12.37,12.36H250.38c-6.82,0-12.36-5.54-12.36-12.36V243.86c0-6.82,5.54-12.36,12.36-12.36   h238.74c6.82,0,12.37,5.54,12.37,12.36V361.87z"/><path d="M627.16,857.72v56.71H412.98c3.75-7.39,5.87-15.74,5.87-24.57V856.8L627.16,857.72z"/><polygon points="744.44,397.88 716.16,369.6 815.09,270.67 688.14,270.67 849.23,109.57 877.52,137.85 784.7,230.67 911.66,230.67     "/><path d="M890.56,665.26c-8.98-16.21-22.04-29.98-37.77-39.81l-35.39-22.13h56.38c12.29,0,22.28-9.99,22.28-22.28v-20.65   c0-6.59-5.37-11.96-11.97-11.96h-23.32c-24.04,0-44.25,16.78-49.51,39.25l-33.21-66.02c-9.77-19.43-24.72-35.73-43.24-47.14   c-18.52-11.42-39.79-17.45-61.55-17.45H477.7c-21.75,0-43.04,6.03-61.55,17.45c-18.52,11.41-33.47,27.71-43.25,47.14l-33.43,66.48   c-5.61-21.99-25.57-38.3-49.28-38.3h-23.32c-6.6,0-11.97,5.37-11.97,11.97v20.65c0,12.29,10,22.28,22.28,22.28h54.11l-33.12,20.7   c-15.73,9.84-28.79,23.61-37.78,39.82c-8.98,16.22-13.74,34.6-13.74,53.14v83.98c0,10.14,1.81,20.1,5.37,29.6l2.2,5.9   c2.66,7.09,7.26,13.07,13.36,17.42v34.56c0,13.46,10.95,24.4,24.41,24.4h72.46c13.46,0,24.4-10.94,24.4-24.4v-53.78l12.93-9.35   l347.38,1.54l12.95,9.37v52.22c0,13.46,10.95,24.4,24.41,24.4h72.46c13.45,0,24.4-10.94,24.4-24.4v-34.57   c6.05-4.33,10.75-10.44,13.36-17.41l2.2-5.9c3.56-9.5,5.37-19.45,5.37-29.6V718.4C904.31,699.86,899.56,681.49,890.56,665.26z    M391.28,773.34h-73.12c-13.84,0-25.1-11.26-25.1-25.11v-23.85c0-7.27,5.92-13.19,13.19-13.19h26.93c32.04,0,58.1,26.06,58.1,58.1   V773.34z M711.81,764.38H439.15v-24.29h272.66V764.38z M711.3,677.1c-6.09,5.52-12.38,11.23-18.39,16.92l-16.71-17.65   c6.21-5.86,12.59-11.66,18.76-17.26c18.77-17.03,36.74-33.36,50.82-52.34c0.99-1.34,1.96-2.68,2.9-4.05   c0.94-1.34,1.85-2.68,2.74-4.05H399.54c0.89,1.37,1.8,2.71,2.74,4.05c0.94,1.37,1.91,2.71,2.91,4.05   c14.07,18.98,32.04,35.3,50.81,52.34c6.17,5.6,12.56,11.4,18.76,17.26l-16.71,17.65c-6.01-5.69-12.3-11.4-18.38-16.92   c-23.12-20.98-46.95-42.62-63.74-70.33c-0.81-1.34-1.6-2.69-2.37-4.05c-0.77-1.34-1.51-2.68-2.23-4.05h-0.9l31.41-62.44   c14.51-28.85,43.58-46.76,75.86-46.76h195.56c32.29,0,61.35,17.91,75.85,46.76l31.41,62.44h-0.9c-0.72,1.37-1.45,2.71-2.22,4.05   c-0.77,1.36-1.56,2.71-2.37,4.05C758.23,634.48,734.41,656.12,711.3,677.1z M857.91,748.23c0,13.85-11.27,25.11-25.11,25.11h-73.12   v-4.05c0-32.04,26.06-58.1,58.1-58.1h26.93c7.28,0,13.2,5.92,13.2,13.19V748.23z"/></g></svg>