<svg xmlns="http://www.w3.org/2000/svg" xmlns:xlink="http://www.w3.org/1999/xlink" version="1.1" x="0px" y="0px" viewBox="0 0 90 90" style="enable-background:new 0 0 90 90;" xml:space="preserve"><path d="M93.05,45.86c-5.74,0-10.78,3.04-13.61,7.59V37.31c3.24-0.57,5.7-3.4,5.7-6.8v-4.08v-4.85c0-0.66-0.54-1.2-1.2-1.2h-1.57  v-4.33c0-0.66-0.54-1.2-1.2-1.2c-0.66,0-1.2,0.54-1.2,1.2v4.33h-3.48v-4.33c0-0.66-0.54-1.2-1.2-1.2c-0.66,0-1.2,0.54-1.2,1.2v4.33  h-1.57c-0.66,0-1.2,0.54-1.2,1.2v8.94c0,3.4,2.47,6.23,5.7,6.8v16.14c-2.83-4.55-7.87-7.59-13.61-7.59c-0.66,0-1.2,0.54-1.2,1.2  c0,8.42,6.54,15.35,14.81,15.96v11.09c0,4.77-3.88,8.64-8.64,8.64c-4.77,0-8.64-3.88-8.64-8.64v-1.64c0-6.09-4.95-11.04-11.04-11.04  h-8.52v2.4h8.52c4.77,0,8.65,3.88,8.65,8.64v1.64c0,6.09,4.95,11.04,11.04,11.04c5.95,0,10.82-4.73,11.03-10.64c0,0,0,0,0,0v-0.01  c0.01-0.05,0.01-0.09,0.01-0.14V63.02c8.27-0.61,14.81-7.54,14.81-15.96C94.25,46.4,93.72,45.86,93.05,45.86z M73.74,25.23v-2.46  h1.56c0,0,0.01,0,0.01,0c0,0,0.01,0,0.01,0h5.85c0,0,0.01,0,0.01,0c0,0,0.01,0,0.01,0h1.56v2.46H73.74z"/><path d="M37.8,70.71V33.1H8.35v37.61H37.8z M14.38,53.58l13.07-14.91c0.37-0.43,1-0.53,1.49-0.25c0.49,0.28,0.72,0.87,0.55,1.41  l-2.77,8.61l4.39,0.9c0.43,0.09,0.77,0.4,0.9,0.81c0.13,0.42,0.03,0.87-0.28,1.18L18.58,65.17c-0.23,0.24-0.55,0.37-0.87,0.37  c-0.23,0-0.45-0.06-0.65-0.19c-0.48-0.31-0.68-0.92-0.46-1.46l3.11-7.64l-4.61-0.69c-0.43-0.07-0.8-0.36-0.95-0.77  C14.01,54.37,14.09,53.91,14.38,53.58z"/><path d="M22.44,54.7c0.18,0.32,0.21,0.7,0.07,1.04l-1.29,3.18l7.29-7.66l-3.58-0.74c-0.33-0.07-0.62-0.28-0.79-0.57  c-0.17-0.29-0.21-0.65-0.11-0.97l1.41-4.37l-7.81,8.91l3.95,0.6C21.94,54.17,22.26,54.38,22.44,54.7z"/><rect x="5.75" y="26.56" width="34.65" height="4.15"/><rect x="5.75" y="73.1" width="34.65" height="4.15"/><rect x="8.35" y="21.69" width="3.05" height="2.47"/><rect x="34.75" y="21.69" width="3.05" height="2.47"/></svg>