<svg xmlns="http://www.w3.org/2000/svg" xmlns:xlink="http://www.w3.org/1999/xlink" version="1.1" x="0px" y="0px" viewBox="0 0 66 66" enable-background="new 0 0 66 66" xml:space="preserve"><g><g><path d="M64,42.2H2c-0.6,0-1,0.5-1,1V64c0,0.6,0.4,1,1,1h62c0.6,0,1-0.4,1-1V43.2C65,42.6,64.6,42.2,64,42.2z M12.5,58.6    c0,0.6-0.4,1-1,1c-0.6,0-1-0.4-1-1v-2c0-0.6,0.4-1,1-1c0.6,0,1,0.4,1,1V58.6z M12.5,50.6c0,0.6-0.4,1-1,1c-0.6,0-1-0.4-1-1v-2    c0-0.6,0.4-1,1-1c0.6,0,1,0.4,1,1V50.6z M26.8,58.6c0,0.6-0.4,1-1,1c-0.6,0-1-0.4-1-1v-2c0-0.6,0.4-1,1-1c0.6,0,1,0.4,1,1V58.6z     M26.8,50.6c0,0.6-0.4,1-1,1c-0.6,0-1-0.4-1-1v-2c0-0.6,0.4-1,1-1c0.6,0,1,0.4,1,1V50.6z M41.2,58.6c0,0.6-0.4,1-1,1s-1-0.4-1-1    v-2c0-0.6,0.4-1,1-1s1,0.4,1,1V58.6z M41.2,50.6c0,0.6-0.4,1-1,1s-1-0.4-1-1v-2c0-0.6,0.4-1,1-1s1,0.4,1,1V50.6z M55.5,58.6    c0,0.6-0.4,1-1,1c-0.6,0-1-0.4-1-1v-2c0-0.6,0.4-1,1-1c0.6,0,1,0.4,1,1V58.6z M55.5,50.6c0,0.6-0.4,1-1,1c-0.6,0-1-0.4-1-1v-2    c0-0.6,0.4-1,1-1c0.6,0,1,0.4,1,1V50.6z"/></g><g><path d="M33.8,13.8H15.5c-0.5,5.8-1.9,18.5-5.9,26.3h30.2C35.7,32.3,34.3,19.6,33.8,13.8z M29,28.9l-4.9,6.8    c-0.3,0.4-0.9,0.6-1.4,0.2c-0.5-0.3-0.6-1-0.2-1.4l3.7-5.2h-5.3c-0.4,0-0.7-0.2-0.9-0.5c-0.2-0.3-0.1-0.7,0.1-1l4.9-6.7    c0.3-0.4,0.9-0.5,1.4-0.2c0.5,0.3,0.5,1,0.2,1.4l-3.7,5.1h5.3c0.4,0,0.7,0.2,0.9,0.5C29.3,28.1,29.3,28.5,29,28.9z"/></g><g><path d="M14.7,11.8h19.9c0.6,0,1-0.4,1-1c0-0.6-0.4-1-1-1H14.7c-0.5,0-1,0.4-1,1C13.7,11.4,14.1,11.8,14.7,11.8z"/></g><g><path d="M24.9,6.5c0.6,0.1,1.1-0.3,1.1-0.8c0.1-0.7,1.1-1.3,1.9-1.3c1.1,0,2.2,0.5,3.3,1c3.5,1.5,5,1.1,7.7-0.9    c2.3-1.6,2.8-1.7,5-0.9l6.1,2.3c0.5,0.2,1.1-0.1,1.3-0.6c0.2-0.5-0.1-1.1-0.6-1.3l-6.1-2.3c-2.8-1-4-0.9-6.8,1.1    c-2.2,1.6-3,1.9-5.8,0.7c-1.3-0.6-2.7-1.2-4.1-1.1c-1.7,0-3.6,1.1-3.9,3C24,5.9,24.4,6.4,24.9,6.5z"/></g><g><path d="M51.4,10.6c0.2-0.5-0.1-1.1-0.6-1.3L44.7,7c-2.5-0.9-3.9-1-6.4,0.8c-0.4,0.3-0.6,0.9-0.2,1.4c0.3,0.5,0.9,0.6,1.4,0.2    C41.4,8.1,42,8.2,44,8.9l6.1,2.3C50.7,11.4,51.2,11.1,51.4,10.6z"/></g><g><path d="M54,17.3c1.7-1.3,2.3-1.3,4-0.6l5.6,2.3c0.5,0.2,1.1,0,1.3-0.6c0.2-0.5,0-1.1-0.6-1.3l-5.6-2.3c-2.4-1-3.7-1-6,0.8    c-0.4,0.3-0.5,1-0.2,1.4C52.9,17.5,53.6,17.6,54,17.3z"/></g><g><path d="M57.9,21.4c0-0.5-0.5-0.9-1-0.9h-8.1c-0.5,0-1,0.4-1,0.9l-1.7,18.7h13.5L57.9,21.4z"/></g></g></svg>