<svg xmlns="http://www.w3.org/2000/svg" xmlns:xlink="http://www.w3.org/1999/xlink" version="1.1" x="0px" y="0px" viewBox="0 0 64 64" style="enable-background:new 0 0 64 64;" xml:space="preserve"><path d="M15.1,51.9l10,3l-8.4-5.3C16.4,50.5,15.9,51.3,15.1,51.9z"/><path d="M13,56c0,0.7,0.6,1.1,1.1,1.1h11.4L13,53.3V56z"/><path d="M54,7H42.9v2h7c1.7,0,3.1,1.4,3.1,3.1V56c0,1.7-1.4,3.1-3.1,3.1H14.1c-1.7,0-3.1-1.4-3.1-3.1V12.1c0-1.7,1.4-3.1,3.1-3.1H21  V7H10C9.5,7,9,7.5,9,8v52c0,0.5,0.5,1,1,1h44c0.5,0,1-0.5,1-1V8C55,7.5,54.5,7,54,7z"/><path d="M40.9,5H38c-0.5,0-1-0.5-1-1V3H27v1c0,0.5-0.5,1-1,1h-3v6h17.9V5z M32,9h-6c-0.5,0-1-0.5-1-1s0.5-1,1-1h6c0.5,0,1,0.5,1,1  S32.5,9,32,9z M38,9h-2c-0.5,0-1-0.5-1-1s0.5-1,1-1h2c0.5,0,1,0.5,1,1S38.5,9,38,9z"/><path d="M14.1,11c-0.7,0-1.1,0.6-1.1,1.1v38.7c1.2-0.4,2-1.5,2-2.8c0-0.4,0.2-0.7,0.5-0.9c0.3-0.2,0.7-0.2,1,0l15.9,9.9h17.5  c0.7,0,1.1-0.6,1.1-1.1V12.1c0-0.7-0.6-1.1-1.1-1.1h-7v0.1c0,1.1-0.9,1.9-1.9,1.9H22.9c-1.1,0-1.9-0.9-1.9-2H14.1z M17,44  c0,0.5-0.5,1-1,1s-1-0.5-1-1v-8c0-0.5,0.5-1,1-1s1,0.5,1,1V44z M17,32c0,0.5-0.5,1-1,1s-1-0.5-1-1v-4c0-0.5,0.5-1,1-1s1,0.5,1,1V32z   M34,55h-2c-0.5,0-1-0.5-1-1s0.5-1,1-1h2c0.5,0,1,0.5,1,1S34.5,55,34,55z M48,55H38c-0.5,0-1-0.5-1-1s0.5-1,1-1h10c0.5,0,1,0.5,1,1  S48.5,55,48,55z M49,49c0,1.2-0.8,2-2,2h-6c-1.2,0-2-0.8-2-2v-2c0-1.2,0.8-2,2-2h2v-6h-3c-0.5,0-1-0.5-1-1s0.5-1,1-1h4  c0.5,0,1,0.5,1,1v7h2c1.2,0,2,0.8,2,2V49z M39,19c0-1.2,0.8-2,2-2h6c1.2,0,2,0.8,2,2v2c0,1.2-0.8,2-2,2h-2v3c0,0.4-0.2,0.7-0.5,0.9  l-4,2c-0.2,0.1-1,0.4-1.3-0.4c-0.2-0.5,0-1.1,0.4-1.3l3.5-1.7V23h-2c-1.2,0-2-0.8-2-2V19z M36.4,19.1c0.4,0.2,0.7,0.6,0.6,1.1  L35.2,31H40c0.4,0,0.7,0.2,0.9,0.5c0.2,0.3,0.1,0.8-0.1,1l-12,16c-0.2,0.3-0.6,0.6-1.2,0.3c-0.4-0.2-0.7-0.6-0.6-1.1L28.8,37H24  c-0.4,0-0.7-0.2-0.9-0.5c-0.2-0.3-0.1-0.8,0.1-1l12-16C35.5,19,36,18.9,36.4,19.1z M23,17c1.2,0,2,0.8,2,2v2c0,1.2-0.8,2-2,2h-2v6h3  c0.5,0,1,0.5,1,1s-0.5,1-1,1h-4c-0.5,0-1-0.5-1-1v-7h-2c-1.2,0-2-0.8-2-2v-2c0-1.2,0.8-2,2-2H23z"/><rect x="41" y="19" width="6" height="2"/><rect x="41" y="47" width="6" height="2"/><rect x="17" y="19" width="6" height="2"/><path d="M31,36.2l-1.3,8L38,33h-4c-0.3,0-1.1-0.3-1-1.2l1.3-8L26,35h4C30.3,35,31.1,35.2,31,36.2z"/></svg>